<?xml version="1.0" encoding="UTF-8"?>
<svg xmlns="http://www.w3.org/2000/svg" xmlns:xlink="http://www.w3.org/1999/xlink" width="152pt" height="65pt" viewBox="0 0 152 65" version="1.1">
<g id="surface1">
<path style=" stroke:none;fill-rule:nonzero;fill:rgb(100%,100%,100%);fill-opacity:1;" d="M 2.199219 29.550781 C 3.347656 29.597656 4.480469 29.597656 5.632812 29.597656 C 6.496094 29.597656 7.378906 29.550781 8.457031 29.550781 C 11.078125 29.550781 14.835938 30.644531 14.835938 34.617188 C 14.835938 37.628906 12.046875 39.707031 9.371094 39.707031 C 8.867188 39.707031 8.457031 39.6875 8.074219 39.6875 L 8.074219 38.84375 C 8.402344 38.894531 8.707031 38.894531 9.03125 38.894531 C 11.226562 38.894531 12.183594 36.730469 12.183594 34.890625 C 12.183594 31.355469 9.71875 30.359375 8.046875 30.359375 C 7.664062 30.359375 7.203125 30.382812 6.929688 30.4375 L 6.929688 44.832031 C 6.929688 46.617188 7.898438 46.636719 9.265625 46.65625 L 9.265625 47.324219 C 8.023438 47.324219 6.929688 47.269531 5.8125 47.269531 C 4.589844 47.269531 3.398438 47.289062 2.121094 47.324219 L 2.121094 46.65625 C 3.472656 46.636719 4.429688 46.605469 4.429688 44.832031 L 4.429688 32.703125 C 4.429688 30.742188 4.09375 30.203125 2.199219 30.203125 Z M 2.199219 29.550781 "/>
<path style=" stroke:none;fill-rule:nonzero;fill:rgb(100%,100%,100%);fill-opacity:1;" d="M 28.519531 42.261719 C 28.878906 43.257812 29.566406 45.421875 29.976562 45.980469 C 30.355469 46.488281 31.113281 46.667969 31.9375 46.667969 L 31.9375 47.332031 C 30.964844 47.332031 29.976562 47.277344 29.015625 47.277344 C 27.773438 47.277344 26.554688 47.300781 25.308594 47.332031 L 25.308594 46.667969 L 25.769531 46.667969 C 26.40625 46.667969 27.160156 46.539062 27.160156 45.832031 C 27.160156 45.546875 26.964844 44.839844 26.785156 44.355469 L 25.507812 40.65625 L 19.523438 40.65625 L 18.96875 42.441406 C 18.640625 43.511719 18.28125 44.683594 18.28125 45.472656 C 18.28125 46.667969 19.125 46.625 20.011719 46.667969 L 20.601562 46.667969 L 20.601562 47.332031 C 19.609375 47.332031 18.585938 47.277344 17.597656 47.277344 C 16.585938 47.277344 15.542969 47.300781 14.535156 47.332031 L 14.535156 46.667969 C 16.078125 46.488281 16.351562 46.289062 17 44.863281 C 17.398438 43.941406 17.703125 42.953125 18.039062 42.011719 L 21.296875 32.917969 C 21.496094 32.324219 21.832031 31.386719 21.832031 30.628906 C 21.832031 30.371094 21.832031 30.171875 21.777344 29.960938 C 22.316406 29.707031 22.894531 29.433594 23.253906 28.84375 L 23.683594 28.84375 Z M 19.882812 39.613281 L 25.117188 39.613281 L 22.402344 32.125 L 22.347656 32.125 Z M 19.882812 39.613281 "/>
<path style=" stroke:none;fill-rule:nonzero;fill:rgb(100%,100%,100%);fill-opacity:1;" d="M 61.355469 28.84375 C 61.25 29.324219 60.617188 29.550781 59.703125 29.550781 L 33.144531 29.550781 C 32.511719 29.550781 31.828125 29.527344 31.542969 28.84375 L 31.039062 28.84375 L 30.753906 32.886719 L 31.417969 32.886719 C 31.847656 31.226562 31.953125 30.59375 34.242188 30.59375 L 37.570312 30.59375 L 37.570312 44.839844 C 37.570312 46.625 36.601562 46.644531 35.253906 46.667969 L 35.253906 47.332031 C 36.515625 47.300781 37.71875 47.277344 38.941406 47.277344 C 40.054688 47.277344 41.152344 47.332031 42.375 47.332031 L 42.375 46.667969 C 41.027344 46.644531 40.054688 46.617188 40.054688 44.839844 L 40.054688 30.59375 L 43.921875 30.59375 C 45.324219 30.59375 45.722656 31.175781 45.851562 31.902344 L 45.902344 32.886719 L 46.628906 32.886719 L 46.683594 31.902344 C 46.796875 31.164062 47 30.59375 48.714844 30.59375 L 52.578125 30.59375 L 52.578125 44.839844 C 52.578125 46.625 51.609375 46.644531 50.261719 46.667969 L 50.261719 47.332031 C 51.539062 47.300781 52.726562 47.277344 53.949219 47.277344 C 55.066406 47.277344 56.160156 47.332031 57.382812 47.332031 L 57.382812 46.667969 C 56.035156 46.644531 55.066406 46.617188 55.066406 44.839844 L 55.066406 30.59375 L 58.933594 30.59375 C 60.964844 30.59375 60.890625 31.511719 60.964844 32.886719 L 61.652344 32.886719 L 61.871094 28.84375 Z M 61.355469 28.84375 "/>
<path style=" stroke:none;fill-rule:nonzero;fill:rgb(100%,100%,100%);fill-opacity:1;" d="M 67.371094 37.59375 L 70.730469 37.59375 C 72.785156 37.59375 72.785156 35.992188 72.855469 35.410156 L 73.363281 35.410156 C 73.320312 35.96875 73.261719 37.34375 73.261719 38.261719 C 73.261719 39.074219 73.398438 40.277344 73.363281 41.089844 L 72.855469 41.089844 C 72.855469 38.640625 72.046875 38.640625 70.085938 38.640625 L 67.371094 38.640625 L 67.371094 42.96875 C 67.371094 45.800781 67.464844 46.519531 69.980469 46.519531 L 71.5625 46.519531 C 74.050781 46.390625 75.175781 46.054688 76.15625 43.328125 L 76.765625 43.433594 C 76.367188 44.703125 75.976562 46.011719 75.726562 47.332031 C 73.183594 47.332031 70.644531 47.277344 68.097656 47.277344 C 66.21875 47.277344 64.335938 47.277344 62.460938 47.332031 L 62.460938 46.667969 C 64.675781 46.667969 64.871094 46.265625 64.871094 43.796875 L 64.871094 32.484375 C 64.871094 30.394531 64.472656 30.300781 62.460938 30.210938 L 62.460938 29.550781 C 64.167969 29.597656 65.894531 29.597656 67.59375 29.597656 C 70.023438 29.597656 72.445312 29.597656 74.914062 29.550781 L 74.914062 33.351562 L 74.394531 33.476562 C 74.015625 31.089844 72.878906 30.371094 70.332031 30.371094 L 67.359375 30.371094 L 67.359375 37.59375 Z M 67.371094 37.59375 "/>
<path style=" stroke:none;fill-rule:nonzero;fill:rgb(100%,100%,100%);fill-opacity:1;" d="M 82.265625 38.925781 L 82.265625 44.839844 C 82.265625 46.625 83.222656 46.644531 84.574219 46.667969 L 84.574219 47.332031 C 83.347656 47.332031 82.265625 47.277344 81.148438 47.277344 C 79.925781 47.277344 78.738281 47.300781 77.460938 47.332031 L 77.460938 46.667969 C 78.726562 46.742188 79.765625 46.414062 79.765625 44.96875 L 79.765625 32.042969 C 79.765625 30.257812 78.808594 30.234375 77.460938 30.203125 L 77.460938 29.539062 C 78.863281 29.558594 80.074219 29.59375 81.316406 29.59375 C 82.203125 29.59375 83.097656 29.539062 84.722656 29.539062 C 89.523438 29.539062 90.585938 32.242188 90.585938 34.046875 C 90.585938 36.210938 88.964844 37.820312 86.984375 38.398438 C 89.289062 41.789062 90.515625 43.828125 91.609375 45.050781 C 92.421875 45.96875 93.175781 46.65625 94.484375 46.65625 L 94.484375 47.324219 C 93.851562 47.324219 93.210938 47.269531 92.578125 47.269531 C 91.863281 47.269531 91.125 47.289062 90.417969 47.324219 C 88.113281 44.765625 86.402344 41.789062 84.574219 38.914062 L 82.265625 38.914062 Z M 83.792969 30.359375 C 83.160156 30.359375 82.730469 30.4375 82.265625 30.519531 L 82.265625 37.972656 C 82.644531 38.0625 83.183594 38.105469 83.613281 38.105469 C 86.742188 38.105469 87.953125 36.042969 87.953125 34.207031 C 87.953125 31.996094 86.785156 30.359375 83.792969 30.359375 "/>
<path style=" stroke:none;fill-rule:nonzero;fill:rgb(100%,100%,100%);fill-opacity:1;" d="M 95.433594 43.128906 L 96.011719 43.128906 C 96.445312 45.039062 97.863281 46.902344 99.984375 46.902344 C 101.941406 46.902344 103.460938 45.515625 103.460938 43.511719 C 103.460938 38.769531 95.9375 40.175781 95.9375 34.160156 C 95.9375 30.878906 98.273438 29.167969 101.375 29.167969 C 102.414062 29.167969 103.460938 29.390625 104.472656 29.550781 L 104.871094 32.8125 L 104.292969 32.8125 C 104.007812 31.027344 102.835938 29.980469 101.007812 29.980469 C 99.078125 29.980469 97.960938 31.386719 97.960938 33.246094 C 97.960938 37.972656 105.785156 36.6875 105.785156 42.535156 C 105.785156 45.855469 102.808594 47.710938 99.8125 47.710938 C 98.488281 47.710938 97.117188 47.40625 95.925781 46.847656 Z M 95.433594 43.128906 "/>
<path style=" stroke:none;fill-rule:nonzero;fill:rgb(100%,100%,100%);fill-opacity:1;" d="M 116.953125 29.167969 C 122.027344 29.167969 126.023438 33.5 126.023438 38.34375 C 126.023438 43 122.4375 47.722656 116.871094 47.722656 C 111.792969 47.722656 107.796875 43.394531 107.796875 38.558594 C 107.808594 33.878906 111.390625 29.167969 116.953125 29.167969 M 117.175781 46.902344 C 120.882812 46.902344 123.222656 43.679688 123.222656 39.074219 C 123.222656 35.195312 120.988281 29.980469 116.640625 29.980469 C 112.929688 29.980469 110.589844 33.191406 110.589844 37.808594 C 110.601562 41.671875 112.835938 46.902344 117.175781 46.902344 "/>
<path style=" stroke:none;fill-rule:nonzero;fill:rgb(100%,100%,100%);fill-opacity:1;" d="M 144.375 47.5625 L 143.792969 47.5625 L 130.5 32.9375 L 130.5 42.441406 C 130.5 45.960938 130.785156 46.667969 133.523438 46.667969 L 133.523438 47.332031 C 132.40625 47.332031 131.269531 47.277344 130.140625 47.277344 C 129.023438 47.277344 127.875 47.300781 126.757812 47.332031 L 126.757812 46.667969 C 128.320312 46.667969 129.480469 46.667969 129.480469 43.433594 L 129.480469 33.191406 C 129.480469 31.007812 128.539062 30.210938 126.347656 30.210938 L 126.347656 29.550781 C 127.136719 29.570312 127.898438 29.597656 128.6875 29.597656 C 129.371094 29.597656 130.089844 29.550781 130.773438 29.550781 C 131.816406 31.101562 134.175781 33.421875 137.074219 36.636719 C 139.230469 39.03125 141.625 41.554688 143.351562 43.433594 L 143.351562 33.296875 C 143.351562 30.953125 142.824219 30.234375 140.273438 30.210938 L 140.273438 29.550781 C 141.445312 29.570312 142.644531 29.597656 143.816406 29.597656 C 144.804688 29.597656 145.773438 29.550781 146.761719 29.550781 L 146.761719 30.210938 C 145.207031 30.210938 144.375 30.339844 144.375 32.84375 Z M 144.375 47.5625 "/>
<path style=" stroke:none;fill-rule:nonzero;fill:rgb(100%,100%,100%);fill-opacity:1;" d="M 64.335938 0.824219 C 59.808594 1.238281 53.9375 3.242188 50.664062 4.6875 C 44.828125 7.679688 40.855469 11.097656 38.527344 13.519531 C 40.011719 13.472656 41.5625 13.519531 43.195312 13.65625 C 48.714844 14.140625 53.09375 15.429688 56.550781 17 C 59.542969 14.179688 64.410156 9.378906 70.675781 7.550781 C 81.539062 4.371094 88.691406 9.613281 88.691406 9.613281 C 88.691406 9.613281 83.117188 -0.875 64.335938 0.824219 "/>
<path style=" stroke:none;fill-rule:nonzero;fill:rgb(100%,100%,100%);fill-opacity:1;" d="M 89.101562 22.027344 C 93.632812 21.617188 99.5 19.609375 102.773438 18.164062 C 108.613281 15.1875 112.582031 11.765625 114.910156 9.332031 C 113.425781 9.378906 111.875 9.332031 110.242188 9.195312 C 104.722656 8.714844 100.332031 7.414062 96.882812 5.839844 C 93.90625 8.660156 89.027344 13.464844 82.761719 15.304688 C 71.886719 18.480469 64.746094 13.242188 64.746094 13.242188 C 64.746094 13.242188 70.320312 23.726562 89.101562 22.027344 "/>
<path style=" stroke:none;fill-rule:nonzero;fill:rgb(100%,100%,100%);fill-opacity:1;" d="M 30.660156 54.332031 C 30.660156 52.875 29.898438 52.96875 29.175781 52.953125 L 29.175781 52.527344 C 29.804688 52.558594 30.449219 52.558594 31.082031 52.558594 C 31.765625 52.558594 32.679688 52.527344 33.886719 52.527344 C 38.074219 52.527344 40.351562 55.324219 40.351562 58.199219 C 40.351562 59.804688 39.414062 63.835938 33.695312 63.835938 C 32.863281 63.835938 32.101562 63.808594 31.34375 63.808594 C 30.617188 63.808594 29.898438 63.828125 29.175781 63.835938 L 29.175781 63.414062 C 30.144531 63.320312 30.617188 63.289062 30.660156 62.183594 Z M 32.25 61.9375 C 32.25 63.183594 33.144531 63.332031 33.933594 63.332031 C 37.433594 63.332031 38.582031 60.691406 38.582031 58.273438 C 38.582031 55.242188 36.644531 53.058594 33.523438 53.058594 C 32.863281 53.058594 32.554688 53.109375 32.261719 53.117188 L 32.261719 61.9375 Z M 32.25 61.9375 "/>
<path style=" stroke:none;fill-rule:nonzero;fill:rgb(100%,100%,100%);fill-opacity:1;" d="M 49.777344 57.652344 L 51.90625 57.652344 C 53.226562 57.652344 53.226562 56.636719 53.265625 56.257812 L 53.59375 56.257812 C 53.558594 56.617188 53.527344 57.492188 53.527344 58.074219 C 53.527344 58.589844 53.601562 59.351562 53.59375 59.867188 L 53.265625 59.867188 C 53.265625 58.316406 52.75 58.316406 51.507812 58.316406 L 49.777344 58.316406 L 49.777344 61.070312 C 49.777344 62.867188 49.84375 63.320312 51.441406 63.320312 L 52.441406 63.320312 C 54.023438 63.234375 54.742188 63.027344 55.371094 61.292969 L 55.761719 61.355469 C 55.5 62.171875 55.257812 62.992188 55.097656 63.835938 C 53.476562 63.835938 51.863281 63.808594 50.242188 63.808594 C 49.042969 63.808594 47.847656 63.808594 46.648438 63.835938 L 46.648438 63.414062 C 48.0625 63.414062 48.1875 63.164062 48.1875 61.589844 L 48.1875 54.386719 C 48.1875 53.066406 47.9375 52.992188 46.648438 52.941406 L 46.648438 52.527344 C 47.734375 52.558594 48.828125 52.558594 49.925781 52.558594 C 51.472656 52.558594 53.011719 52.558594 54.582031 52.527344 L 54.582031 54.945312 L 54.253906 55.019531 C 54.015625 53.5 53.285156 53.046875 51.664062 53.046875 L 49.777344 53.046875 Z M 49.777344 57.652344 "/>
<path style=" stroke:none;fill-rule:nonzero;fill:rgb(100%,100%,100%);fill-opacity:1;" d="M 72.570312 63.996094 L 72.203125 63.996094 L 63.757812 54.695312 L 63.757812 60.734375 C 63.757812 62.972656 63.9375 63.425781 65.683594 63.425781 L 65.683594 63.847656 C 64.96875 63.847656 64.242188 63.820312 63.535156 63.820312 C 62.820312 63.820312 62.089844 63.835938 61.386719 63.847656 L 61.386719 63.425781 C 62.375 63.425781 63.113281 63.425781 63.113281 61.367188 L 63.113281 54.851562 C 63.113281 53.457031 62.511719 52.953125 61.121094 52.953125 L 61.121094 52.527344 C 61.628906 52.539062 62.113281 52.558594 62.609375 52.558594 C 63.039062 52.558594 63.492188 52.527344 63.9375 52.527344 C 64.597656 53.511719 66.105469 54.988281 67.949219 57.039062 C 69.320312 58.558594 70.847656 60.160156 71.941406 61.367188 L 71.941406 54.914062 C 71.941406 53.425781 71.601562 52.960938 69.980469 52.953125 L 69.980469 52.527344 C 70.730469 52.539062 71.488281 52.558594 72.226562 52.558594 C 72.855469 52.558594 73.46875 52.527344 74.101562 52.527344 L 74.101562 52.953125 C 73.113281 52.953125 72.570312 53.035156 72.570312 54.617188 Z M 72.570312 63.996094 "/>
<path style=" stroke:none;fill-rule:nonzero;fill:rgb(100%,100%,100%);fill-opacity:1;" d="M 89.554688 54.652344 L 89.113281 54.652344 C 89.070312 53.773438 89.113281 53.195312 87.816406 53.195312 L 85.351562 53.195312 L 85.351562 62.253906 C 85.351562 63.382812 85.972656 63.40625 86.824219 63.425781 L 86.824219 63.847656 C 86.046875 63.847656 85.351562 63.820312 84.644531 63.820312 C 83.867188 63.820312 83.105469 63.835938 82.308594 63.847656 L 82.308594 63.425781 C 83.160156 63.40625 83.769531 63.394531 83.769531 62.253906 L 83.769531 53.195312 L 81.65625 53.195312 C 80.199219 53.195312 80.128906 53.59375 79.855469 54.652344 L 79.433594 54.652344 L 79.613281 52.074219 L 79.9375 52.074219 C 80.117188 52.515625 80.550781 52.539062 80.960938 52.539062 L 88.300781 52.539062 C 88.878906 52.539062 89.28125 52.390625 89.355469 52.074219 L 89.691406 52.074219 Z M 89.554688 54.652344 "/>
<path style=" stroke:none;fill-rule:nonzero;fill:rgb(100%,100%,100%);fill-opacity:1;" d="M 102.816406 60.617188 C 103.046875 61.25 103.480469 62.625 103.742188 62.984375 C 103.984375 63.300781 104.472656 63.414062 104.996094 63.414062 L 104.996094 63.835938 C 104.375 63.835938 103.742188 63.808594 103.132812 63.808594 C 102.34375 63.808594 101.5625 63.828125 100.773438 63.835938 L 100.773438 63.414062 L 101.054688 63.414062 C 101.46875 63.414062 101.953125 63.332031 101.953125 62.878906 C 101.953125 62.699219 101.828125 62.242188 101.710938 61.9375 L 100.898438 59.59375 L 97.097656 59.59375 L 96.738281 60.726562 C 96.527344 61.410156 96.308594 62.148438 96.308594 62.652344 C 96.308594 63.414062 96.832031 63.382812 97.402344 63.414062 L 97.769531 63.414062 L 97.769531 63.835938 C 97.152344 63.835938 96.496094 63.808594 95.863281 63.808594 C 95.210938 63.808594 94.558594 63.828125 93.90625 63.835938 L 93.90625 63.414062 C 94.894531 63.300781 95.074219 63.171875 95.476562 62.265625 C 95.738281 61.683594 95.925781 61.050781 96.136719 60.445312 L 98.214844 54.671875 C 98.339844 54.300781 98.546875 53.699219 98.546875 53.214844 C 98.546875 53.058594 98.546875 52.929688 98.519531 52.792969 C 98.855469 52.636719 99.226562 52.453125 99.457031 52.074219 L 99.730469 52.074219 Z M 97.316406 58.9375 L 100.644531 58.9375 L 98.917969 54.164062 L 98.886719 54.164062 Z M 97.316406 58.9375 "/>
<path style=" stroke:none;fill-rule:nonzero;fill:rgb(100%,100%,100%);fill-opacity:1;" d="M 119.101562 63.847656 C 117.734375 63.820312 116.359375 63.820312 114.992188 63.820312 C 113.5625 63.820312 112.140625 63.820312 110.714844 63.847656 L 110.714844 63.425781 C 111.527344 63.480469 112.191406 63.265625 112.191406 62.339844 L 112.191406 54.125 C 112.191406 52.980469 111.582031 52.96875 110.714844 52.953125 L 110.714844 52.539062 C 111.476562 52.546875 112.214844 52.570312 112.949219 52.570312 C 113.6875 52.570312 114.433594 52.546875 115.246094 52.539062 L 115.246094 52.953125 C 114.394531 52.96875 113.769531 52.980469 113.769531 54.125 L 113.769531 61.628906 C 113.769531 62.824219 114.035156 63.332031 116.332031 63.332031 C 118.207031 63.332031 118.847656 62.878906 119.355469 61.304688 L 119.710938 61.367188 Z M 119.101562 63.847656 "/>
<path style=" stroke:none;fill-rule:nonzero;fill:rgb(100%,100%,100%);fill-opacity:1;" d="M 148.058594 30.722656 C 149.175781 30.722656 150.070312 31.585938 150.070312 32.695312 C 150.070312 33.804688 149.1875 34.679688 148.046875 34.679688 C 146.921875 34.679688 146.015625 33.804688 146.015625 32.695312 C 146.015625 31.585938 146.921875 30.722656 148.046875 30.722656 Z M 148.039062 31.121094 C 147.183594 31.121094 146.519531 31.828125 146.519531 32.703125 C 146.519531 33.582031 147.183594 34.292969 148.058594 34.292969 C 148.914062 34.300781 149.566406 33.59375 149.566406 32.726562 C 149.566406 31.851562 148.914062 31.132812 148.046875 31.132812 L 148.039062 31.132812 Z M 147.730469 33.730469 L 147.28125 33.730469 L 147.28125 31.757812 C 147.457031 31.734375 147.714844 31.691406 148.039062 31.691406 C 148.410156 31.691406 148.574219 31.757812 148.710938 31.851562 C 148.828125 31.9375 148.914062 32.085938 148.914062 32.273438 C 148.914062 32.515625 148.734375 32.675781 148.503906 32.75 L 148.503906 32.769531 C 148.691406 32.832031 148.785156 32.988281 148.847656 33.257812 C 148.914062 33.5625 148.957031 33.667969 148.996094 33.738281 L 148.511719 33.738281 C 148.449219 33.667969 148.414062 33.5 148.355469 33.257812 C 148.320312 33.042969 148.195312 32.949219 147.945312 32.949219 L 147.71875 32.949219 L 147.71875 33.730469 Z M 147.742188 32.609375 L 147.964844 32.609375 C 148.21875 32.609375 148.414062 32.527344 148.414062 32.324219 C 148.414062 32.144531 148.277344 32.03125 147.996094 32.03125 C 147.878906 32.03125 147.796875 32.042969 147.742188 32.050781 Z M 147.742188 32.609375 "/>
</g>
</svg>
